# xmcd
#
# Track frame offsets:
#	150
#	30325
#	53245
#	83695
#
# Disc length: 1420 seconds
#
# Revision: 1
# Processed by: cddbd v1.5PL3 Copyright (c) Steve Scherf et al.
# Submitted via: CDex 1.50Beta5
#
DISCID=22058a04
DTITLE=CM NET WORK - CM DISCO NOW and THEN VOL.2
DYEAR=1900
DGENRE=
TTITLE0=CM DISCO NOW〜CM選択の自由アハハーン〜
TTITLE1=CM DISCO THEN〜CM選択の自由アハハーン〜
TTITLE2=CM DISCO NOW〜CM選択の自由アハハーン〜(カラオケ)
TTITLE3=CM DISCO THEN〜CM選択の自由アハハーン〜(カラオケ)
EXTD=
EXTT0=
EXTT1=
EXTT2=
EXTT3=
PLAYORDER=
